<?xml version="1.0" encoding="utf-8"?>
<!-- Generator: Adobe Illustrator 16.0.0, SVG Export Plug-In . SVG Version: 6.00 Build 0)  -->
<!DOCTYPE svg PUBLIC "-//W3C//DTD SVG 1.1//EN" "http://www.w3.org/Graphics/SVG/1.1/DTD/svg11.dtd">
<svg version="1.1" id="Calque_1" xmlns="http://www.w3.org/2000/svg" xmlns:xlink="http://www.w3.org/1999/xlink" x="0px" y="0px"
	 width="22.25px" height="17.709px" viewBox="0 0 22.25 17.709" enable-background="new 0 0 22.25 17.709" xml:space="preserve">
<g id="layer1">
	<g>
		<path d="M13.627,1.475c-0.224,0.11-0.394,0.385-0.438,0.697c-0.023,0.162-0.023,0.201,0.01,0.358
			c0.07,0.33,0.222,0.571,0.578,0.912c0.223,0.214,0.39,0.429,0.49,0.629c0.111,0.221,0.2,0.482,0.2,0.587
			c0,0.039,0.011,0.144,0.025,0.232c0.024,0.16,0.004,0.492-0.04,0.641c-0.148,0.479-0.174,0.529-0.355,0.756
			c-0.146,0.177-0.507,0.524-0.662,0.635c-0.082,0.062-0.236,0.183-0.344,0.272s-0.262,0.21-0.343,0.268
			c-0.084,0.057-0.207,0.15-0.274,0.208c-0.152,0.131-0.444,0.314-0.605,0.379c-0.068,0.026-0.184,0.08-0.254,0.119
			c-0.084,0.044-0.141,0.062-0.151,0.048c-0.011-0.01-0.022-0.109-0.026-0.221l-0.008-0.201l0.08-0.123
			c0.043-0.066,0.102-0.166,0.129-0.22c0.062-0.113,0.117-0.152,0.174-0.119c0.1,0.051,0.137,0.003,0.072-0.093
			c-0.021-0.03-0.027-0.065-0.02-0.086c0.009-0.021,0.017-0.074,0.02-0.119c0.004-0.045,0.035-0.151,0.076-0.235
			c0.038-0.085,0.087-0.21,0.107-0.276c0.02-0.067,0.047-0.136,0.057-0.149c0.01-0.013,0.02-0.067,0.018-0.121
			c-0.002-0.052,0.006-0.138,0.02-0.188c0.018-0.078,0.035-0.341,0.038-0.597c0.002-0.104-0.079-0.546-0.116-0.636
			c-0.044-0.105-0.107-0.204-0.156-0.239c-0.021-0.015-0.082-0.064-0.141-0.113s-0.129-0.103-0.16-0.116
			c-0.102-0.051-0.129-0.086-0.13-0.155c0-0.086-0.032-0.104-0.09-0.051c-0.058,0.056-0.075,0.054-0.293-0.007
			C10.941,4.1,10.84,4.04,10.84,3.985c0-0.041-0.071-0.071-0.099-0.045c-0.014,0.015-0.023,0.035-0.023,0.049
			c0,0.043-0.129,0.107-0.267,0.133c-0.256,0.048-0.254,0.048-0.295,0.003C10.093,4.057,10.043,4.07,10.03,4.16
			c-0.007,0.043-0.026,0.088-0.046,0.102c-0.021,0.01-0.078,0.045-0.137,0.075c-0.139,0.078-0.256,0.161-0.324,0.23
			c-0.094,0.097-0.188,0.308-0.215,0.49C9.292,5.148,9.271,5.244,9.256,5.273C9.222,5.34,9.232,6.299,9.265,6.39
			c0.067,0.174,0.191,0.602,0.192,0.656c0,0.041-0.019,0.08-0.051,0.111C9.318,7.239,9.351,7.292,9.464,7.251
			c0.067-0.026,0.062-0.033,0.193,0.243c0.091,0.19,0.119,0.357,0.062,0.358c-0.061,0-0.316-0.354-0.418-0.568
			C9.285,7.245,9.263,7.163,9.25,7.1C9.239,7.034,9.22,6.96,9.208,6.932c-0.012-0.028-0.03-0.124-0.041-0.216
			C9.158,6.626,9.14,6.493,9.128,6.419C9.116,6.347,9.091,6.181,9.072,6.052C9.03,5.769,8.951,5.448,8.882,5.293
			c-0.085-0.191-0.13-0.262-0.264-0.397c-0.16-0.161-0.262-0.208-0.498-0.229C7.998,4.655,7.98,4.659,7.816,4.744
			C7.722,4.793,7.644,4.841,7.644,4.851c0,0.009-0.012,0.017-0.025,0.017c-0.03,0-0.141,0.111-0.324,0.321
			C7.136,5.373,6.968,5.693,6.869,6.006C6.836,6.109,6.791,6.391,6.791,6.49c0.001,0.133,0.068,0.284,0.155,0.341
			c0.131,0.092,0.198,0.02,0.1-0.107C6.992,6.652,6.99,6.646,7.003,6.461c0.016-0.237,0.036-0.312,0.174-0.62
			c0.02-0.045,0.041-0.099,0.047-0.118c0.01-0.019,0.022-0.034,0.033-0.034c0.01,0,0.03-0.033,0.043-0.072
			c0.014-0.041,0.045-0.088,0.073-0.104C7.4,5.493,7.427,5.458,7.435,5.437c0.019-0.059,0.223-0.261,0.264-0.262
			c0.018,0,0.045-0.022,0.062-0.052c0.02-0.028,0.045-0.052,0.058-0.052s0.06-0.019,0.104-0.041C8.011,4.984,8.086,4.977,8.107,5.01
			C8.114,5.021,8.142,5.03,8.169,5.03c0.035,0,0.061,0.02,0.082,0.062C8.269,5.124,8.295,5.159,8.31,5.167
			c0.015,0.009,0.05,0.076,0.076,0.149C8.433,5.441,8.435,5.474,8.437,5.89c0,0.242-0.012,0.558-0.023,0.698
			c-0.02,0.196-0.02,0.332-0.002,0.558C8.437,7.474,8.466,7.61,8.542,7.765c0.114,0.227,0.334,0.608,0.402,0.696
			c0.023,0.034,0.048,0.077,0.048,0.097c0,0.068-0.218,0.071-0.349,0.008C8.607,8.546,8.541,8.532,8.5,8.532
			c-0.045,0.001-0.099-0.016-0.129-0.04C8.341,8.471,8.3,8.451,8.278,8.451C8.208,8.452,7.845,8.317,7.726,8.246
			C7.617,8.185,7.095,7.669,7.001,7.534C6.913,7.407,6.829,7.235,6.683,6.89C6.571,6.619,6.544,6.466,6.565,6.162
			c0.01-0.185,0.022-0.257,0.061-0.328c0.065-0.128,0.195-0.319,0.279-0.408c0.114-0.121,0.306-0.383,0.36-0.491
			C7.33,4.804,7.417,4.554,7.433,4.449C7.454,4.317,7.445,4.01,7.418,3.875c-0.015-0.066-0.03-0.178-0.04-0.244
			c-0.01-0.092-0.047-0.188-0.136-0.362C7.136,3.058,7.097,3.005,6.923,2.827C6.759,2.661,6.694,2.608,6.524,2.519
			c-0.245-0.13-0.363-0.15-0.537-0.09C5.903,2.457,5.845,2.496,5.763,2.582C5.611,2.742,5.56,2.91,5.562,3.236
			C5.564,3.479,5.585,3.59,5.675,3.81c0.059,0.146,0.078,0.168,0.143,0.159C5.88,3.96,5.88,3.932,5.831,3.687
			c-0.037-0.186-0.042-0.479-0.01-0.611c0.032-0.133,0.104-0.234,0.202-0.287c0.096-0.052,0.205-0.061,0.24-0.018
			c0.016,0.017,0.053,0.037,0.084,0.043c0.033,0.008,0.066,0.03,0.072,0.053c0.008,0.021,0.033,0.05,0.059,0.062
			c0.08,0.041,0.138,0.105,0.138,0.152c0,0.026,0.017,0.052,0.037,0.059c0.043,0.014,0.118,0.133,0.11,0.174
			C6.759,3.327,6.777,3.36,6.798,3.385c0.055,0.057,0.09,0.15,0.074,0.197C6.865,3.606,6.876,3.645,6.902,3.675
			c0.047,0.06,0.056,0.15,0.02,0.211c-0.019,0.028-0.017,0.048,0.01,0.087c0.051,0.066,0.045,0.133-0.018,0.213
			C6.867,4.248,6.865,4.26,6.892,4.312C6.929,4.384,6.923,4.4,6.833,4.491C6.771,4.554,6.763,4.569,6.784,4.605
			c0.026,0.052,0.013,0.082-0.04,0.082c-0.041,0.001-0.133,0.1-0.152,0.167C6.581,4.883,6.562,4.894,6.533,4.89
			C6.48,4.882,6.392,4.974,6.362,5.068C6.347,5.111,6.327,5.132,6.292,5.136C6.23,5.145,6.082,5.328,6.099,5.381
			c0.006,0.025-0.021,0.06-0.092,0.114C5.905,5.573,5.862,5.657,5.905,5.7c0.047,0.047,0.026,0.116-0.05,0.149
			c-0.117,0.05-0.176,0.229-0.09,0.274c0.029,0.017,0.041,0.043,0.041,0.112c0,0.051-0.009,0.092-0.019,0.092
			c-0.026,0-0.084,0.132-0.084,0.195c0,0.033,0.019,0.069,0.048,0.092C5.798,6.654,5.8,6.683,5.784,7.031
			C5.78,7.111,5.786,7.136,5.823,7.164c0.08,0.063,0.116,0.168,0.12,0.332c0.003,0.179,0.016,0.218,0.096,0.257
			c0.079,0.041,0.201,0.264,0.197,0.36C6.234,8.199,6.296,8.281,6.376,8.302c0.064,0.016,0.258,0.27,0.258,0.339
			c0,0.074,0.098,0.162,0.205,0.186c0.059,0.016,0.127,0.056,0.217,0.136c0.072,0.062,0.133,0.127,0.133,0.139
			c0,0.039,0.063,0.084,0.154,0.112C7.465,9.25,7.618,9.321,7.627,9.347C7.65,9.404,7.447,9.678,7.299,9.786
			C7.261,9.814,7.181,9.874,7.124,9.921c-0.239,0.188-0.673,0.37-1.108,0.469c-0.23,0.052-0.795,0.076-0.979,0.042
			c-0.386-0.07-0.527-0.114-0.665-0.202c-0.229-0.148-0.294-0.243-0.294-0.428C4.076,9.68,4.105,9.576,4.21,9.359
			c0.016-0.033,0.028-0.068,0.028-0.08c0-0.011,0.059-0.142,0.13-0.289c0.229-0.479,0.26-0.562,0.298-0.792
			c0.047-0.267,0.007-0.604-0.093-0.791c-0.055-0.1-0.312-0.329-0.456-0.401c-0.063-0.032-0.209-0.085-0.431-0.16
			c-0.104-0.032-0.18-0.04-0.44-0.039C2.867,6.806,2.67,6.848,2.37,6.99C2.125,7.109,1.795,7.388,1.661,7.594
			C1.513,7.821,1.468,7.952,1.468,8.165C1.47,8.398,1.5,8.556,1.556,8.613c0.096,0.102,0.129,0.049,0.146-0.218
			c0.014-0.2,0.057-0.373,0.105-0.414c0.017-0.013,0.027-0.043,0.027-0.067c0-0.026,0.023-0.067,0.053-0.097
			c0.028-0.026,0.062-0.07,0.071-0.097C1.97,7.694,2.004,7.662,2.038,7.653C2.072,7.641,2.117,7.6,2.14,7.561
			c0.025-0.045,0.058-0.07,0.086-0.07c0.025,0,0.068-0.027,0.101-0.064c0.04-0.048,0.069-0.064,0.116-0.062
			c0.043,0,0.078-0.017,0.109-0.049c0.035-0.037,0.067-0.05,0.131-0.05c0.045,0,0.102-0.013,0.123-0.029
			C2.87,7.192,2.972,7.175,3.021,7.202C3.056,7.221,3.076,7.219,3.11,7.195c0.052-0.033,0.165-0.024,0.233,0.021
			c0.03,0.021,0.055,0.023,0.08,0.01c0.049-0.028,0.176,0.006,0.219,0.061c0.027,0.031,0.059,0.043,0.104,0.041
			c0.076-0.004,0.173,0.052,0.208,0.12C3.966,7.474,4,7.501,4.027,7.503C4.099,7.514,4.129,7.544,4.13,7.606
			c0,0.031,0.016,0.074,0.03,0.097c0.042,0.054,0.04,0.091-0.013,0.144C4.115,7.884,4.111,7.898,4.132,7.932
			c0.035,0.057,0.01,0.145-0.063,0.213C4.023,8.186,4.007,8.221,4.009,8.26c0.002,0.032,0.004,0.066,0.002,0.082
			c-0.004,0.036-0.125,0.17-0.154,0.17c-0.031,0-0.053,0.046-0.051,0.112c0,0.067-0.097,0.229-0.177,0.295
			C3.579,8.96,3.56,8.989,3.56,9.036c0.002,0.082-0.084,0.262-0.151,0.312C3.357,9.39,3.355,9.4,3.369,9.507
			c0.018,0.125-0.012,0.223-0.077,0.277C3.254,9.813,3.254,9.823,3.28,9.891c0.015,0.041,0.054,0.104,0.084,0.14
			c0.062,0.065,0.071,0.118,0.036,0.179c-0.02,0.03-0.012,0.056,0.045,0.133c0.037,0.054,0.089,0.103,0.113,0.107
			c0.066,0.018,0.104,0.1,0.072,0.16c-0.022,0.041-0.021,0.058,0.024,0.127c0.073,0.116,0.11,0.146,0.159,0.113
			c0.021-0.014,0.05-0.024,0.062-0.024c0.041,0,0.162,0.103,0.162,0.136c0,0.092,0.18,0.227,0.232,0.173
			c0.055-0.055,0.252,0.008,0.306,0.1c0.032,0.059,0.149,0.122,0.217,0.122c0.017,0,0.048-0.015,0.065-0.03
			c0.029-0.026,0.062-0.028,0.173-0.02c0.116,0.012,0.146,0.021,0.205,0.081c0.06,0.058,0.086,0.069,0.164,0.069
			c0.073,0,0.103-0.012,0.143-0.057c0.041-0.045,0.074-0.056,0.175-0.063c0.11-0.01,0.131-0.005,0.188,0.045
			c0.104,0.083,0.281,0.058,0.338-0.049c0.023-0.05,0.049-0.062,0.174-0.085c0.133-0.024,0.151-0.024,0.207,0.008
			c0.114,0.066,0.315-0.017,0.354-0.146c0.011-0.03,0.052-0.06,0.142-0.093c0.07-0.023,0.14-0.056,0.154-0.066
			c0.018-0.014,0.034-0.012,0.049,0.003c0.067,0.066,0.276-0.016,0.325-0.129c0.037-0.081,0.236-0.192,0.355-0.195
			c0.045,0,0.104-0.002,0.133-0.006c0.045-0.008,0.051-0.001,0.045,0.055c-0.01,0.121-0.151,0.433-0.269,0.596
			c-0.126,0.176-0.483,0.872-0.569,1.108c-0.021,0.055-0.059,0.164-0.086,0.236c-0.026,0.076-0.07,0.219-0.095,0.318
			c-0.024,0.101-0.053,0.215-0.062,0.254c-0.041,0.152-0.08,0.408-0.08,0.498c0,0.054-0.018,0.164-0.04,0.246
			c-0.034,0.13-0.038,0.197-0.031,0.537c0.008,0.33,0.021,0.442,0.076,0.737c0.038,0.189,0.075,0.365,0.084,0.389
			c0.146,0.381,0.245,0.542,0.394,0.636c0.076,0.047,0.092,0.049,0.457,0.048c0.303-0.001,0.381-0.007,0.401-0.029
			c0.012-0.017,0.09-0.065,0.17-0.106c0.153-0.081,0.339-0.233,0.565-0.464c0.129-0.129,0.223-0.272,0.547-0.829
			c0.07-0.125,0.136-0.229,0.145-0.236c0.008-0.006,0.026-0.043,0.042-0.082c0.056-0.138,0.153-0.308,0.318-0.548
			c0.094-0.138,0.237-0.395,0.334-0.59c0.157-0.326,0.168-0.358,0.187-0.533c0.035-0.342,0.006-0.629-0.087-0.883
			c-0.044-0.114-0.198-0.407-0.272-0.509c-0.067-0.095-0.092-0.114-0.141-0.114c-0.082,0-0.098,0.035-0.113,0.276
			c-0.02,0.304-0.064,0.542-0.181,0.923c-0.028,0.091-0.059,0.246-0.069,0.349c-0.063,0.613-0.101,1.022-0.1,1.152
			c0,0.105-0.023,0.161-0.195,0.439c-0.207,0.342-0.66,0.963-0.703,0.963c-0.008,0-0.047,0.025-0.084,0.06
			c-0.037,0.031-0.09,0.066-0.118,0.074s-0.069,0.03-0.093,0.052c-0.055,0.049-0.121,0.082-0.168,0.082
			c-0.021,0-0.049,0.019-0.062,0.042c-0.018,0.03-0.047,0.041-0.114,0.041c-0.049,0-0.094,0.009-0.098,0.019
			c-0.003,0.012-0.039,0.004-0.078-0.016c-0.048-0.021-0.074-0.05-0.078-0.082C7.91,15.703,7.894,15.662,7.88,15.64
			c-0.033-0.057-0.041-0.612-0.015-0.841c0.028-0.211,0.076-0.459,0.099-0.502c0.012-0.02,0.034-0.106,0.053-0.196
			c0.021-0.091,0.041-0.188,0.047-0.216c0.007-0.028,0.025-0.08,0.047-0.117c0.021-0.034,0.055-0.131,0.079-0.215
			c0.024-0.082,0.057-0.191,0.075-0.242c0.053-0.162,0.269-0.603,0.369-0.749c0.055-0.08,0.166-0.259,0.248-0.4
			s0.219-0.339,0.303-0.44c0.086-0.103,0.17-0.202,0.187-0.226c0.054-0.07,0.618-0.656,0.683-0.705
			c0.078-0.06,0.154-0.075,0.293-0.059c0.119,0.015,0.14,0.028,0.242,0.176c0.098,0.14,0.235,0.29,0.307,0.335
			c0.035,0.022,0.086,0.062,0.115,0.088c0.027,0.026,0.07,0.058,0.099,0.066c0.024,0.011,0.055,0.041,0.065,0.068
			c0.015,0.036,0.039,0.055,0.096,0.062c0.136,0.022,0.15,0.03,0.166,0.098c0.018,0.065,0.02,0.065,0.164,0.075
			c0.135,0.009,0.152,0.018,0.176,0.062c0.021,0.047,0.039,0.051,0.199,0.061c0.096,0.006,0.232,0.003,0.307-0.008
			c0.074-0.008,0.24-0.024,0.369-0.036c0.129-0.013,0.295-0.031,0.367-0.046c0.123-0.024,0.135-0.031,0.145-0.089
			c0.008-0.051,0.021-0.062,0.092-0.076c0.162-0.033,0.172-0.037,0.178-0.084c0.004-0.035,0.024-0.05,0.089-0.062
			c0.131-0.029,0.181-0.061,0.198-0.132c0.013-0.05,0.033-0.069,0.072-0.08c0.104-0.021,0.147-0.049,0.147-0.086
			c0-0.049,0.088-0.131,0.19-0.176c0.055-0.024,0.074-0.048,0.074-0.083c0-0.062,0.036-0.096,0.112-0.097
			c0.034,0,0.082-0.015,0.104-0.03c0.051-0.04,0.15-0.04,0.18-0.001c0.013,0.02,0.07,0.036,0.13,0.042
			c0.106,0.016,0.138,0.043,0.179,0.179c0.006,0.021,0.039,0.041,0.076,0.049c0.07,0.015,0.201,0.17,0.203,0.243
			c0.001,0.023,0.033,0.079,0.076,0.123c0.082,0.088,0.166,0.258,0.183,0.367c0.004,0.039,0.026,0.1,0.051,0.129
			c0.023,0.032,0.042,0.073,0.042,0.089c0,0.017,0.006,0.036,0.016,0.043c0.023,0.023,0.106,0.288,0.108,0.344
			c0,0.029,0.019,0.09,0.041,0.138c0.022,0.045,0.042,0.104,0.042,0.126c0,0.025,0.01,0.062,0.021,0.082
			c0.011,0.021,0.022,0.098,0.027,0.168c0.004,0.072,0.016,0.147,0.028,0.17c0.037,0.072,0.044,0.215,0.026,0.514
			c-0.031,0.514-0.045,0.609-0.101,0.689c-0.022,0.031-0.038,0.088-0.038,0.141c0,0.09-0.027,0.164-0.074,0.189
			c-0.016,0.011-0.027,0.052-0.027,0.1c0.001,0.062-0.012,0.095-0.051,0.13c-0.028,0.025-0.051,0.062-0.051,0.08
			c0,0.09-0.097,0.062-0.179-0.054c-0.095-0.127-0.194-0.238-0.274-0.311c-0.142-0.125-0.244-0.235-0.323-0.353
			c-0.109-0.16-0.272-0.473-0.272-0.52c0-0.022-0.009-0.056-0.019-0.076c-0.011-0.018-0.037-0.1-0.062-0.178
			c-0.022-0.08-0.062-0.202-0.084-0.276c-0.076-0.256-0.104-0.381-0.129-0.604c-0.027-0.258-0.057-0.323-0.139-0.313
			c-0.131,0.016-0.262,0.452-0.338,1.155c-0.059,0.521-0.028,0.75,0.15,1.137c0.057,0.124,0.059,0.126,0.188,0.354
			c0.058,0.104,0.12,0.182,0.175,0.223c0.081,0.057,0.346,0.189,0.538,0.267c0.271,0.107,0.667,0.14,0.815,0.064
			c0.103-0.052,0.363-0.309,0.427-0.424c0.145-0.252,0.267-0.623,0.36-1.087c0.072-0.352,0.092-0.634,0.062-0.901
			c-0.07-0.619-0.058-0.551-0.181-0.932c-0.024-0.08-0.059-0.194-0.071-0.256c-0.015-0.062-0.033-0.123-0.042-0.134
			c-0.006-0.013-0.023-0.062-0.039-0.112s-0.072-0.179-0.128-0.284c-0.056-0.104-0.103-0.206-0.103-0.226
			c0-0.019-0.011-0.045-0.021-0.058c-0.027-0.026-0.037-0.045-0.148-0.247c-0.117-0.213-0.492-0.554-0.714-0.65
			c-0.174-0.075-0.411-0.129-0.579-0.128c-0.119,0-0.363,0.04-0.455,0.073c-0.187,0.068-0.408,0.21-0.572,0.364
			c-0.045,0.044-0.088,0.078-0.098,0.078c-0.009,0-0.078,0.042-0.154,0.093c-0.074,0.052-0.156,0.093-0.184,0.094
			c-0.043,0-0.174,0.059-0.365,0.163c-0.082,0.043-0.088,0.045-0.154,0.011c-0.127-0.062-0.16-0.107-0.16-0.217
			c-0.001-0.16,0.038-0.214,0.178-0.242c0.146-0.03,0.271-0.094,0.271-0.137c0-0.017,0.033-0.045,0.072-0.062
			c0.061-0.024,0.096-0.027,0.18-0.01c0.064,0.013,0.131,0.015,0.168,0.003c0.127-0.036,0.254-0.108,0.266-0.147
			c0.014-0.038,0.105-0.104,0.153-0.104c0.013,0,0.048,0.02,0.079,0.044l0.059,0.04l0.119-0.054
			c0.126-0.057,0.159-0.085,0.143-0.128c-0.009-0.026,0.088-0.089,0.139-0.089c0.016,0,0.055,0.028,0.086,0.062
			c0.043,0.051,0.062,0.06,0.109,0.049c0.149-0.037,0.198-0.062,0.226-0.115c0.051-0.109,0.222-0.092,0.233,0.021
			c0.006,0.048,0.018,0.054,0.098,0.06c0.119,0.008,0.178-0.009,0.229-0.066c0.039-0.043,0.053-0.047,0.108-0.027
			c0.084,0.027,0.114,0.055,0.114,0.098c0,0.021,0.016,0.047,0.031,0.062c0.043,0.036,0.229,0.031,0.272-0.008
			c0.03-0.027,0.045-0.027,0.137,0.004c0.08,0.028,0.104,0.045,0.109,0.086c0.017,0.112,0.159,0.171,0.269,0.107
			c0.057-0.033,0.061-0.033,0.143,0.021c0.084,0.056,0.095,0.069,0.089,0.136c-0.007,0.06,0.077,0.109,0.177,0.106
			c0.077-0.002,0.104,0.008,0.164,0.065c0.061,0.057,0.066,0.073,0.049,0.107c-0.031,0.059-0.027,0.078,0.023,0.125
			c0.033,0.03,0.066,0.041,0.119,0.036c0.06-0.004,0.078,0.004,0.117,0.063C17,10.767,17.009,10.804,17,10.858
			c-0.01,0.068-0.004,0.076,0.058,0.104c0.047,0.021,0.082,0.062,0.115,0.131l0.049,0.099l-0.043,0.047
			c-0.057,0.061-0.041,0.121,0.039,0.164c0.086,0.043,0.166,0.312,0.104,0.349c-0.034,0.021-0.021,0.146,0.019,0.181
			c0.021,0.021,0.047,0.034,0.058,0.034c0.038,0,0.138,0.271,0.134,0.37c-0.003,0.104,0.057,0.203,0.122,0.203
			c0.021,0,0.069,0.035,0.106,0.081c0.037,0.047,0.088,0.107,0.112,0.139c0.027,0.031,0.048,0.084,0.048,0.119
			c0,0.076,0.072,0.15,0.146,0.15c0.027,0,0.074,0.021,0.105,0.047c0.029,0.026,0.076,0.064,0.105,0.088
			c0.027,0.021,0.054,0.058,0.054,0.082c0,0.038,0.013,0.056,0.113,0.146c0.043,0.038,0.133,0.038,0.157-0.001
			c0.011-0.017,0.019-0.013,0.027,0.008c0.008,0.022,0.027,0.029,0.062,0.022c0.055-0.011,0.223,0.049,0.258,0.09
			c0.028,0.034,0.185,0.038,0.218,0.005c0.022-0.022,0.223-0.017,0.381,0.011c0.059,0.014,0.09,0.006,0.133-0.021
			c0.082-0.057,0.188-0.099,0.271-0.103c0.114-0.007,0.159-0.028,0.202-0.099c0.063-0.104,0.17-0.195,0.233-0.204
			c0.059-0.006,0.104-0.063,0.123-0.16c0.006-0.028,0.047-0.093,0.095-0.14c0.053-0.061,0.081-0.109,0.081-0.145
			c0-0.03,0.023-0.114,0.055-0.185c0.041-0.102,0.049-0.14,0.032-0.166c-0.013-0.02-0.017-0.082-0.011-0.142
			c0.006-0.08,0-0.119-0.029-0.162c-0.021-0.032-0.035-0.086-0.033-0.12c0.004-0.05-0.01-0.082-0.059-0.127
			c-0.031-0.035-0.062-0.074-0.062-0.086c0-0.039-0.231-0.253-0.317-0.294c-0.047-0.022-0.092-0.052-0.1-0.065
			c-0.009-0.017-0.035-0.028-0.056-0.028c-0.037,0-0.101-0.021-0.199-0.066c-0.063-0.028-0.144-0.036-0.409-0.037
			c-0.224-0.001-0.232,0.001-0.386,0.075c-0.086,0.041-0.176,0.095-0.2,0.116c-0.021,0.021-0.053,0.039-0.064,0.039
			c-0.039,0.001-0.153,0.135-0.153,0.18c0.001,0.091,0.104,0.088,0.287-0.005c0.209-0.105,0.303-0.135,0.454-0.136
			c0.517-0.002,0.912,0.298,0.953,0.728c0.011,0.118,0.007,0.159-0.025,0.234c-0.045,0.104-0.244,0.331-0.328,0.376
			c-0.279,0.148-0.303,0.157-0.543,0.188c-0.254,0.036-0.286,0.032-0.475-0.045c-0.047-0.02-0.119-0.059-0.166-0.086
			c-0.045-0.028-0.107-0.065-0.141-0.081c-0.16-0.082-0.476-0.468-0.552-0.677c-0.063-0.179-0.162-0.591-0.163-0.685
			c-0.002-0.121-0.064-0.407-0.133-0.614c-0.062-0.182-0.114-0.295-0.258-0.561c-0.107-0.198-0.35-0.445-0.67-0.687
			c-0.43-0.323-0.473-0.347-0.945-0.529c-0.312-0.119-0.393-0.145-0.596-0.172c-0.09-0.013-0.228-0.032-0.307-0.044
			c-0.205-0.032-0.847-0.025-0.938,0.01c-0.106,0.039-0.118,0.007-0.026-0.078c0.057-0.051,0.084-0.065,0.1-0.049
			c0.035,0.034,0.121,0.024,0.195-0.021c0.049-0.03,0.065-0.056,0.064-0.101c0-0.045,0.02-0.076,0.066-0.113
			c0.08-0.062,0.127-0.066,0.154-0.021c0.014,0.025,0.039,0.031,0.104,0.021c0.099-0.012,0.146-0.045,0.146-0.099
			c0-0.022,0.013-0.039,0.026-0.039c0.017,0,0.045-0.02,0.064-0.041c0.051-0.054,0.104-0.052,0.137,0.002
			c0.021,0.038,0.035,0.043,0.131,0.032c0.103-0.012,0.222-0.07,0.26-0.13c0.021-0.035,0.115-0.012,0.125,0.033
			c0.021,0.078,0.328,0.035,0.354-0.049c0.018-0.051,0.102-0.047,0.141,0.006C16.214,8.194,16.24,8.2,16.331,8.2
			c0.146-0.005,0.216-0.021,0.229-0.059c0.013-0.033,0.156-0.041,0.156-0.011c0,0.011,0.015,0.035,0.029,0.051
			c0.057,0.056,0.262,0.012,0.393-0.081c0.039-0.028,0.047-0.026,0.097,0.01c0.086,0.067,0.182,0.045,0.389-0.091
			c0.052-0.035,0.06-0.035,0.106-0.005c0.072,0.047,0.211,0.023,0.234-0.04c0.026-0.071,0.194-0.16,0.272-0.146
			c0.079,0.016,0.198-0.05,0.198-0.108c0-0.022,0.027-0.058,0.066-0.082c0.034-0.022,0.081-0.061,0.1-0.082
			c0.021-0.024,0.059-0.043,0.086-0.043c0.07-0.001,0.152-0.091,0.142-0.152c-0.015-0.066,0.11-0.274,0.174-0.292
			c0.063-0.019,0.118-0.123,0.083-0.164c-0.039-0.047,0.016-0.246,0.088-0.319c0.062-0.065,0.07-0.129,0.025-0.188
			c-0.039-0.051-0.04-0.211-0.001-0.278c0.043-0.075,0.036-0.123-0.032-0.224c-0.051-0.075-0.062-0.11-0.062-0.219
			c0-0.118-0.004-0.131-0.059-0.161c-0.062-0.037-0.146-0.17-0.148-0.231c0-0.041-0.06-0.105-0.096-0.105
			c-0.013,0-0.072-0.055-0.134-0.12c-0.091-0.098-0.122-0.12-0.159-0.11c-0.025,0.007-0.053,0.005-0.061-0.006
			c-0.041-0.062-0.139-0.109-0.217-0.108c-0.047,0-0.105-0.016-0.133-0.032c-0.039-0.029-0.063-0.031-0.155-0.013
			c-0.06,0.013-0.125,0.018-0.147,0.014c-0.023-0.006-0.07,0.011-0.117,0.041c-0.043,0.028-0.096,0.054-0.115,0.054
			c-0.021,0-0.065,0.031-0.103,0.07c-0.034,0.039-0.084,0.076-0.108,0.082c-0.026,0.007-0.055,0.039-0.07,0.084
			c-0.018,0.046-0.045,0.083-0.076,0.093c-0.031,0.013-0.049,0.035-0.049,0.068c0,0.027-0.018,0.072-0.04,0.103
			C17.042,5.488,16.992,5.7,16.988,5.93c-0.003,0.28,0.027,0.359,0.215,0.535c0.143,0.133,0.188,0.154,0.218,0.105
			c0.026-0.043,0.005-0.103-0.087-0.23c-0.146-0.202-0.154-0.336-0.047-0.653c0.117-0.345,0.407-0.586,0.702-0.587
			c0.142,0,0.333,0.116,0.479,0.29c0.129,0.149,0.137,0.167,0.225,0.397c0.094,0.243,0.088,0.397-0.021,0.733
			c-0.059,0.183-0.166,0.38-0.265,0.484c-0.229,0.249-0.617,0.41-1.119,0.467c-0.304,0.032-0.881,0.021-1.379-0.029
			c-0.113-0.01-0.209-0.016-0.22-0.01c-0.008,0.006-0.161,0.019-0.34,0.03c-0.34,0.021-0.448,0.044-1.008,0.199
			c-0.17,0.049-0.516,0.231-0.692,0.365c-0.144,0.108-0.291,0.201-0.323,0.201c-0.011,0,0.041-0.049,0.122-0.119
			c0.013-0.01,0.043-0.047,0.071-0.084c0.027-0.037,0.092-0.101,0.144-0.142c0.146-0.12,0.704-0.723,0.794-0.855
			c0.018-0.023,0.059-0.076,0.096-0.115c0.062-0.064,0.097-0.125,0.272-0.472c0.056-0.106,0.124-0.331,0.164-0.534
			c0.011-0.051,0.028-0.23,0.04-0.398c0.02-0.303,0.011-0.422-0.05-0.737c-0.011-0.058-0.022-0.133-0.031-0.17
			c-0.006-0.037-0.019-0.071-0.028-0.078c-0.011-0.006-0.02-0.03-0.02-0.057c0-0.024-0.008-0.055-0.018-0.063
			c-0.01-0.013-0.029-0.062-0.045-0.111c-0.115-0.386-0.388-0.732-1.009-1.288c-0.278-0.249-0.409-0.529-0.384-0.813
			c0.014-0.152,0.031-0.207,0.104-0.328c0.115-0.192,0.26-0.258,0.471-0.211c0.181,0.04,0.229,0.044,0.244,0.021
			c0.033-0.051-0.018-0.106-0.146-0.169C13.929,1.412,13.771,1.404,13.627,1.475z"/>
	</g>
</g>
</svg>
